# xmcd
#
# Track frame offsets: 
#        150
#        40117
#        54130
#        73522
#        96032
#        108857
#        120892
#        141452
#        156835
#        165657
#        189732
#
# Disc length: 2812 seconds
#
# Revision: 1
# Processed by: cddbd v1.5.2PL0 Copyright (c) Steve Scherf et al.
# Submitted via: ExactAudioCopyFreeDBPlugin 1.0
#
DISCID=890afa0b
DTITLE=Grandaddy - The Sophtware Slump
DYEAR=1999
DGENRE=
TTITLE0=He's Simple, He's Dumb, He's The Pilot
TTITLE1=Hewlett's Daughter
TTITLE2=Jed The Humanoid
TTITLE3=The Crystal Lake
TTITLE4=Chartsengrafs
TTITLE5=Underneath The Weeping Willos
TTITLE6=Broken Household Appliance National Forest
TTITLE7=Jed's Other Poem
TTITLE8=Jed's Other Poem
TTITLE9=Miner At The Dial-A-View
TTITLE10=So You'll Aim Toward The Sky
EXTD=
EXTT0=
EXTT1=
EXTT2=
EXTT3=
EXTT4=
EXTT5=
EXTT6=
EXTT7=
EXTT8=
EXTT9=
EXTT10=
PLAYORDER=
